<svg width="255" height="255" xmlns="http://www.w3.org/2000/svg" xml:space="preserve" version="1.1">
	<title>Red Devil</title>
	<path id="svg_1" fill="#CC151A" d="m106.70999,65.69999l0.23,0.01c0.14,0.04 0.2,0.11 0.2,0.21l-0.01,0.32c-0.01,0.14 -0.08,0.2 -0.21,0.2l-0.32,-0.01l-0.09,-0.53c0,-0.14 0.08,-0.21 0.2,-0.2zm20.78,-20.23c0.79,0.17 2.26,0.33 4.42,0.48c2.19,0.62 4.13,1.46 5.83,2.5c2.28,1.79 3.49,3 3.63,3.65c0.21,0.01 0.48,0.29 0.81,0.86c0.68,0.46 1.13,1.2 1.33,2.23c0.36,1.68 0.53,2.75 0.51,3.2c-0.08,1.96 -1.64,4.78 -4.67,8.44l-4.78,3.92c-0.12,0.22 -0.78,0.58 -1.99,1.06c-0.06,0.32 -0.98,0.76 -2.75,1.33c-0.22,0.14 -0.33,0.24 -0.33,0.28c0.99,0.7 2.28,1.78 3.85,3.25c0.35,0.01 0.63,0.23 0.84,0.65c0.2,0.01 0.61,0.64 1.23,1.9c0.09,0 0.46,0.53 1.1,1.58c0.34,0.01 0.97,0.28 1.91,0.81c0.88,0.04 1.48,0.47 1.78,1.31c0.26,0.39 0.74,0.89 1.45,1.5c0.06,0.49 0.08,0.76 0.08,0.8c-0.14,0.07 -0.25,0.1 -0.32,0.1l0,0.09c0.04,0.22 0.66,0.9 1.86,2.04l-0.01,0.21c0,0.12 -0.34,0.21 -0.99,0.26c0.03,0.47 0.4,0.94 1.13,1.4c-0.01,0.26 0.47,0.79 1.45,1.59c0.28,0.73 0.51,1.19 0.7,1.38c0.3,0.01 0.69,0.37 1.15,1.08l-0.55,-0.02c0.01,-0.17 -0.75,-0.85 -2.27,-2.06c-1.52,-1.91 -2.93,-2.89 -4.21,-2.94c0,-0.08 -0.06,-0.12 -0.2,-0.12l0,-0.09c0.29,0.01 0.44,-0.05 0.44,-0.19c-0.9,-0.04 -1.68,-0.41 -2.33,-1.13c-0.4,-0.41 -0.89,-0.68 -1.48,-0.79c0.01,-0.2 -0.06,-0.3 -0.19,-0.31l-0.11,0l-0.13,0.41l-0.32,-0.01c-0.72,-1.08 -2.14,-2.41 -4.25,-3.97c-0.43,-0.64 -1.25,-0.99 -2.45,-1.04c-0.96,-0.45 -1.75,-1.13 -2.39,-2.04c-0.14,-0.01 -0.56,-0.3 -1.27,-0.88c-0.15,-0.01 -1.09,-0.77 -2.81,-2.29c-0.88,-0.59 -1.54,-0.89 -2,-0.91l-0.32,-0.01c-0.28,0.06 -0.74,0.77 -1.39,2.12c-0.29,-0.01 -0.46,0.53 -0.5,1.63l-0.03,0.82l0.28,1.04l0,0.09c-0.03,0.69 -0.7,2.1 -2,4.24c-0.2,-0.01 -0.41,-0.09 -0.63,-0.23c-0.79,2.06 -1.26,3.1 -1.43,3.12c-0.3,-0.42 -0.51,-0.64 -0.61,-0.64c-0.37,-0.01 -0.56,0.15 -0.57,0.5c-0.02,0.55 -0.79,1.78 -2.3,3.71c-0.51,1.35 -0.82,2.03 -0.93,2.02l-0.1,-0.42c0.01,-0.2 0.8,-2.02 2.37,-5.46l0.25,-1.02c-0.12,-0.45 -0.17,-1 -0.14,-1.65l0.21,0.01c-0.19,-0.59 -0.28,-0.97 -0.27,-1.13c0.01,-0.34 0.22,-1.73 0.61,-4.19l-0.21,0.08l-0.32,-0.01l0.01,-0.21c0.36,-1.42 1.09,-3.41 2.17,-5.98l0.29,-1.43c-0.63,-0.29 -1.22,-0.75 -1.77,-1.4l0.12,-0.73l0.03,-0.71l0.12,-0.2c-1.55,-0.46 -2.33,-0.74 -2.32,-0.83c0.08,0 0.18,-0.02 0.32,-0.08c0.61,0.09 1.11,0.14 1.5,0.15l0.41,0.02c0.11,0 0.22,-0.09 0.35,-0.28c-1.9,-0.66 -3.35,-1.4 -4.35,-2.24l0.34,0.01c1.05,0.45 2.4,0.72 4.06,0.78l0,-0.11c0.01,-0.14 0.04,-0.2 0.1,-0.2l-0.07,-0.51l0.02,-0.41c0.02,-0.55 0.4,-0.95 1.12,-1.19l0.34,-0.4l0,-0.09c-0.27,-0.38 -0.41,-0.7 -0.4,-0.95c0.04,-0.14 0.11,-0.2 0.21,-0.2c-0.01,0.3 0.34,0.56 1.07,0.78l0.02,-0.53c0.02,-0.56 -0.27,-1.43 -0.88,-2.6l0.02,-0.41l0.32,0.01c0.87,1.82 1.59,2.74 2.15,2.77c0.35,-0.63 0.62,-1.96 0.83,-3.99c0.01,-0.29 0.2,-0.66 0.57,-1.1l0.03,-0.62c0.02,-0.59 0.23,-1.13 0.62,-1.62c0,-0.12 -0.06,-0.33 -0.2,-0.63c0.69,-1.27 1.99,-2.21 3.89,-2.82c1.08,0 1.63,-0.15 1.64,-0.46l0,-0.09c-0.32,-0.01 -0.53,-0.06 -0.64,-0.14l-1.42,0.15c-0.7,-0.17 -1.37,-0.36 -2.01,-0.59l0.01,-0.21l0.22,-0.31l-0.64,-0.03c-0.86,0.24 -2.06,0.37 -3.59,0.38c-0.27,-0.09 -0.52,-0.14 -0.75,-0.15l0.01,-0.3c0.29,0.01 0.52,-0.12 0.68,-0.38c-0.28,-0.27 -0.42,-0.45 -0.41,-0.54c-2.43,0.45 -4.1,0.93 -5.03,1.44c-0.65,0.52 -1.16,0.78 -1.54,0.76c-0.15,-0.01 -0.3,-0.04 -0.43,-0.11c-1.22,0.64 -1.91,0.95 -2.08,0.95l0.01,-0.32c5.28,-2.67 8.57,-3.98 9.86,-3.92l-0.11,-0.21c0.08,0 1.03,-0.33 2.86,-1l0.09,0c-0.01,0.14 -0.26,0.26 -0.77,0.38l0,0.09l0.54,0.14c0.76,-0.66 1.99,-0.95 3.7,-0.88c1.24,-0.22 2.72,-0.34 4.43,-0.35l0,-0.09c-0.21,-0.01 -0.32,-0.08 -0.31,-0.22l-0.03,-0.18zm-19.05,23.18c0.37,0.01 0.68,0.23 0.93,0.66l-0.01,0.32c-0.48,0.25 -0.81,0.38 -0.98,0.37l-0.22,-0.01c-0.11,0 -0.21,-0.12 -0.31,-0.33l0.03,-0.82l0.56,-0.19zm3.65,-7.45c0.49,0.22 0.73,0.53 0.72,0.94l-0.01,0.32l-0.76,0.06l-0.43,-0.02c-0.19,-0.5 -0.29,-0.81 -0.28,-0.93c0.41,-0.24 0.66,-0.37 0.76,-0.37zm0.88,-3.17l0.32,0.01c0.14,0.04 0.2,0.11 0.2,0.21l-0.01,0.32c-0.01,0.14 -0.08,0.2 -0.21,0.2l-0.23,-0.01c-0.14,-0.01 -0.2,-0.08 -0.2,-0.21l0.13,-0.52zm-1.08,26.39l0.09,0l-0.02,0.41l-0.09,0l0.02,-0.41zm8.13,-32.46l0.32,0.01l0.07,0.51l0,0.11l-0.53,0.07l-0.09,-0.51c0.02,-0.13 0.1,-0.2 0.23,-0.19zm1.21,-3.45l0,0.09l0.53,0.02l0,-0.09l-0.53,-0.02zm9.05,2.72c-0.05,0 -0.26,-0.04 -0.64,-0.12c-1.01,0.05 -1.52,0.2 -1.53,0.44l-0.03,0.73c0.19,0.63 0.26,1.42 0.22,2.37c-0.05,1.29 -0.37,1.93 -0.95,1.91c-0.11,0.54 -0.3,0.81 -0.56,0.8l-0.02,0.53c-0.01,0.14 -0.55,1.14 -1.63,3.02l-0.01,0.3c0,0.05 0.02,0.5 0.06,1.35c-0.12,0.41 -0.66,1.24 -1.61,2.5c-0.17,0.33 -0.26,0.81 -0.29,1.43c0.46,0.22 1.04,0.34 1.72,0.37c1.69,-0.21 3.47,-0.61 5.34,-1.22c0.01,-0.37 0.39,-0.79 1.13,-1.28c0.62,-0.17 1.35,-0.56 2.2,-1.15c0.79,0.03 1.5,-0.56 2.11,-1.77c0.29,-0.32 0.76,-1.27 1.42,-2.83l-0.11,-0.21c0.09,-0.26 0.13,-0.49 0.14,-0.7c-0.84,-3.02 -2.08,-5 -3.74,-5.92c-0.36,-0.11 -0.54,-0.21 -0.54,-0.32l0.12,-0.2c-0.14,-0.01 -0.46,-0.13 -0.97,-0.36c-0.95,0.23 -1.56,0.35 -1.83,0.33zm-2.54,1.46c0.07,0.12 0.11,0.23 0.1,0.3l0.09,0l0.01,-0.3l-0.2,0zm5.6,10.91l-0.01,0.21c0.14,-0.06 0.25,-0.08 0.32,-0.08l0,-0.11l-0.31,-0.02zm4.26,3.98l-0.01,0.21l0.11,0l0.01,-0.21l-0.11,0zm0.89,-0.68l-0.12,0.2l0,0.09l0.11,0c0,-0.06 0.04,-0.16 0.1,-0.29l-0.09,0z" class="st0"/>
	<path id="svg_2" fill="#CC151A" d="m128.22999,79.91999l0.37,0.01c0.12,0.02 0.18,0.08 0.18,0.19l0,0.09c0,0.09 -0.1,0.18 -0.29,0.26l-0.27,-0.01l0.01,-0.54zm28.07,-34.83l0.09,0c0.12,0.02 0.18,0.08 0.18,0.19l-0.01,0.18c-0.15,0.59 -0.22,0.92 -0.22,1l-0.01,0.27c0.05,0.19 0.23,0.28 0.54,0.3l0.66,-0.43c0.18,0.01 0.42,0.08 0.72,0.21c0.63,-0.04 1.12,-0.05 1.47,-0.03l0.18,0.01l2.89,0.94c0.01,0.12 0.07,0.19 0.18,0.19l0.27,0.01c0.16,-0.16 0.72,-0.44 1.68,-0.85c0.01,-0.18 0.16,-0.3 0.47,-0.35c2.13,0.09 3.19,0.31 3.18,0.68l0.08,0.19c-0.12,0.01 -0.19,0.07 -0.19,0.18c0.49,0.07 0.73,0.14 0.72,0.21l0.46,-0.07l0.64,0.03c0.34,0.01 0.57,0.18 0.71,0.49c-0.09,0 -0.25,0.11 -0.47,0.35c0.11,0.2 0.17,0.36 0.16,0.46l1.28,0.05c2.38,0.4 3.71,0.61 4,0.62l-0.01,0.18l-0.65,0.16l-3.47,-0.14c-0.96,-0.04 -1.76,0.14 -2.4,0.54l-0.27,-0.19l-0.18,-0.01c-0.02,0.47 -0.98,0.77 -2.87,0.89c-0.25,0.17 -0.38,0.29 -0.38,0.35c0.06,0.12 0.08,0.22 0.08,0.28l-0.27,-0.01l-0.65,0.16c-0.43,-0.02 -1.31,-0.08 -2.65,-0.2c-1.68,-0.07 -2.72,0.19 -3.14,0.79c-0.46,0.16 -1.05,0.23 -1.75,0.2l-0.46,-0.02c-0.77,0.82 -1.17,1.72 -1.21,2.7c-0.04,0.33 -0.43,0.78 -1.15,1.33c-0.09,0.61 -0.61,1.53 -1.58,2.77c-0.33,0.66 -0.51,1.23 -0.53,1.72l-0.03,0.64c1.25,0.42 1.91,0.69 1.98,0.81l0.46,0.02c0.01,-0.23 0.38,-0.46 1.13,-0.69l0.2,-0.45l1.55,0.06l1.1,-0.05c0.3,0.5 0.56,0.76 0.79,0.76c0.4,-0.11 0.68,-0.16 0.83,-0.15l0.18,0.01c0.36,0.05 0.54,0.14 0.54,0.3l-0.01,0.18l-0.19,0.27l0,0.09c-0.01,0.26 1.2,0.46 3.64,0.61c0,0.06 0.03,0.09 0.09,0.1c0.34,-0.05 0.61,-0.07 0.83,-0.06l0.73,0.03l-0.01,0.18c-2.89,0.19 -4.61,0.33 -5.14,0.43c-0.01,0.23 -0.35,0.37 -1.02,0.42c-0.01,0.3 -0.48,0.59 -1.41,0.86c-0.88,0.13 -1.4,0.32 -1.58,0.58c0.06,0.12 0.08,0.22 0.08,0.28c-0.3,0.17 -0.7,0.25 -1.2,0.23l-0.18,-0.01c-0.4,-0.02 -0.79,-0.06 -1.18,-0.14c-2.08,0.11 -3.13,0.35 -3.14,0.7l-0.74,0.15l-0.18,-0.1c-0.69,-0.03 -1.15,0.26 -1.41,0.86c0,0.11 -0.43,0.91 -1.29,2.42c-0.52,1.63 -1.15,2.64 -1.86,3.04c-0.17,-0.01 -0.3,0.29 -0.4,0.9c-0.38,-0.02 -0.76,0.4 -1.15,1.23c-0.24,-0.01 -0.44,0.23 -0.58,0.71l0.07,0.46l-0.03,0.64c2.08,-0.04 3.12,-0.21 3.13,-0.51c0.3,-0.17 0.64,-0.25 1.02,-0.23c0.11,0 0.47,0.05 1.09,0.14c-0.01,0.18 0.05,0.28 0.17,0.28l0.01,-0.18c0.06,0 0.3,0.04 0.73,0.12c0.24,0.01 1.79,-0.38 4.63,-1.18l5.15,-0.61l4.82,0.75l0.27,0.01c0.2,-0.36 0.94,-0.63 2.23,-0.82c0.26,-0.42 0.79,-0.61 1.58,-0.58l0.82,0.03c2.32,0.09 3.46,0.39 3.44,0.87c-0.12,0.01 -0.19,0.07 -0.19,0.18c0.18,0.01 0.39,0.08 0.63,0.21c0.79,-0.03 1.44,-0.03 1.92,-0.01c0.46,0.02 0.79,0.18 0.99,0.5l-0.57,0.43l0,0.09c-0.01,0.2 0.35,0.4 1.07,0.59c0.98,-0.02 1.56,-0.03 1.74,-0.02c1.05,0.04 1.9,0.29 2.53,0.74l0.09,0c0.63,-0.04 1.12,-0.05 1.47,-0.03l0.08,0.19c-0.49,0.03 -0.74,0.08 -0.74,0.15c-0.33,-0.07 -0.58,-0.12 -0.73,-0.12c-1.23,-0.05 -2.54,-0.13 -3.93,-0.25c-0.7,0.03 -1.37,0.04 -2.01,0.01c-0.87,0.39 -1.43,0.58 -1.67,0.57l-0.09,0l0,-0.09c0.24,0.01 0.37,-0.08 0.38,-0.26l-0.37,-0.01c-0.01,0.35 -1.71,0.71 -5.08,1.07l-0.01,0.18c0.24,0.01 0.36,0.08 0.36,0.2l0,0.09c-1.29,-0.05 -3.87,0.15 -7.71,0.6c-0.79,-0.03 -1.2,0.13 -1.21,0.5c-1.46,0.61 -2.78,0.92 -3.97,0.94l-0.64,-0.12c-3.7,0.49 -6.16,0.94 -7.38,1.35c-0.03,0.07 -0.68,0.2 -1.94,0.38c-0.84,0.33 -1.42,0.49 -1.76,0.48l-1.1,-0.04c-0.24,-0.01 -0.46,0.13 -0.66,0.43l-1.19,-0.05c-0.79,-0.03 -1.2,0.23 -1.22,0.77l-0.67,0.61l-0.09,0c-0.12,0 -0.18,-0.19 -0.16,-0.56l-0.18,-0.01c-0.55,-0.02 -0.98,0.75 -1.29,2.33l-1.17,1.69c-0.21,-0.01 -0.48,0.59 -0.81,1.8l-0.19,0.08l-0.09,0l0.01,-0.27c0.55,-1.58 1.23,-3.32 2.04,-5.23c0.07,-0.32 0.12,-0.62 0.13,-0.91l0.04,-0.91c-2.48,-0.5 -3.71,-0.95 -3.7,-1.34c-0.09,0 -0.18,-0.1 -0.26,-0.29l0.03,-0.64c0.01,-0.34 -0.07,-0.58 -0.24,-0.74l-0.46,0.07l-1.01,-0.04l0,-0.09c0,-0.11 0.47,-0.24 1.39,-0.4c0,-0.12 0.1,-0.18 0.28,-0.17l0,-0.09c-1.53,-0.25 -2.74,-0.54 -3.63,-0.88l0,-0.09c2.47,0.1 5.3,-0.49 8.49,-1.76c0.66,-1.7 1.46,-3.31 2.39,-4.85c0.13,-0.65 0.5,-1.49 1.11,-2.52l0.07,-1.65c0.47,-1.09 0.71,-1.73 0.72,-1.89l0,-0.09c-0.04,-0.18 -0.59,-0.82 -1.66,-1.9l0.01,-0.27c0.01,-0.32 0.06,-0.84 0.15,-1.55c-0.48,-0.19 -0.72,-0.35 -0.71,-0.49l0,-0.09l0.73,0.03c0,-0.09 0.07,-0.21 0.2,-0.36c-0.38,-0.52 -1.12,-1.01 -2.23,-1.46l0.01,-0.27l0.55,0.02c0.52,0.45 1.57,0.71 3.17,0.77c0.29,0.01 1.18,-0.01 2.66,-0.07c0.47,-0.99 0.71,-1.74 0.73,-2.26l0,-0.09l-0.09,0c-0.62,0.52 -0.96,0.78 -1.04,0.78l0.01,-0.27c1.59,-1.55 2.41,-3.04 2.47,-4.48l-0.82,-0.03c0,-0.06 -0.03,-0.09 -0.09,-0.1c-0.7,-0.03 -1.42,-0.3 -2.16,-0.82c-1.51,-0.31 -2.25,-0.85 -2.22,-1.65c-0.1,-0.46 -0.15,-0.74 -0.15,-0.83l-0.27,-0.01c-0.14,-0.01 -0.26,0.02 -0.37,0.08c-0.1,-0.07 -0.22,-0.1 -0.36,-0.11l0,-0.09c0.67,-0.37 1.02,-0.6 1.04,-0.69c-0.87,-0.28 -1.51,-0.43 -1.9,-0.44l-0.73,-0.03l-0.45,-0.11c0.01,-0.17 0.56,-0.27 1.66,-0.3c0.01,-0.17 0.56,-0.3 1.66,-0.39c1.72,-0.97 2.99,-1.43 3.81,-1.4c0.29,0.01 0.65,0.12 1.09,0.32c1.92,0.08 3.15,-0.18 3.69,-0.76c0.56,-0.28 0.85,-0.64 0.87,-1.06l0.64,0.03l0.51,0.94l0.27,0.01c0.28,-0.96 0.67,-1.44 1.16,-1.42c0.22,0.19 0.43,0.29 0.63,0.3l-0.08,-0.19l0.02,-0.55c0.53,-0.22 0.87,-0.3 1.07,-0.29zm-26.05,36.93l0.37,0.01c0.46,0.02 0.7,0.12 0.72,0.3l-0.01,0.27c-0.23,0.36 -0.51,0.53 -0.84,0.51l-0.27,-0.01c0,-0.12 -0.05,-0.34 -0.16,-0.65c0.12,-0.18 0.19,-0.33 0.19,-0.43zm5.72,-3.34l0,0.09l0.46,0.02l0,-0.09c-0.12,0 -0.18,-0.04 -0.18,-0.1c-0.12,0.05 -0.21,0.08 -0.28,0.08zm1.71,-28.31l0.18,0.01c0.12,0.02 0.18,0.08 0.18,0.19l-0.01,0.27c0,0.12 -0.07,0.18 -0.19,0.18l-0.27,-0.01l-0.07,-0.46c0.01,-0.13 0.07,-0.18 0.18,-0.18zm-0.31,9.78l0.18,0.01c0.09,0 0.18,0.1 0.26,0.29l-0.01,0.18c0,0.12 -0.07,0.18 -0.19,0.18l-0.18,-0.01c-0.12,0 -0.18,-0.07 -0.18,-0.19l0.12,-0.46zm1.17,2.71c0.73,0.03 1.09,0.26 1.07,0.68c0,0.08 -0.22,0.25 -0.66,0.52c-0.43,-0.02 -0.63,-0.21 -0.62,-0.57l0.21,-0.63zm1.9,-10.64c0.3,0.06 0.45,0.16 0.45,0.29l-0.01,0.27c-0.22,0.42 -0.5,0.62 -0.85,0.61l-0.09,0c-0.12,0 -0.24,-0.19 -0.34,-0.56c0.12,-0.42 0.4,-0.63 0.84,-0.61zm3.35,-3.52c0,0.06 -0.04,0.15 -0.1,0.27l0.18,0.01c0,-0.06 0.04,-0.15 0.1,-0.27l-0.18,-0.01zm-0.51,12.52c0.01,0.12 0.07,0.19 0.18,0.19l0.01,-0.18l-0.19,-0.01zm7.27,5.88l0,0.09l0.09,0c0.12,-0.06 0.22,-0.08 0.28,-0.08l0,-0.09l-0.09,0c-0.13,0.05 -0.22,0.08 -0.28,0.08zm-0.45,15.45l0,0.09l0.18,0.01l0,-0.09l-0.18,-0.01zm2.67,-38.52l0.55,0.02c0.41,0.32 0.61,0.67 0.6,1.03l-0.3,0.63c-0.65,-0.03 -1.03,-0.47 -1.14,-1.33l0,-0.09c0.01,-0.09 0.1,-0.18 0.29,-0.26zm1.26,2.8l-0.01,0.18l0.18,0.01l0.01,-0.18l-0.18,-0.01zm1.99,-3.86l0.27,0.01c0,0.09 0.05,0.22 0.17,0.37l-0.01,0.27l-0.46,0.07l-0.18,-0.01c0.01,-0.14 -0.02,-0.26 -0.08,-0.37c0.1,-0.22 0.2,-0.34 0.29,-0.34zm1.22,1.42l0.09,0c0.09,0 0.18,0.1 0.26,0.29l-0.01,0.18c0,0.12 -0.07,0.18 -0.19,0.18l-0.18,-0.01c-0.12,0 -0.18,-0.07 -0.18,-0.19l0.01,-0.27c0.03,-0.12 0.09,-0.18 0.2,-0.18zm3,20.72l0.09,0l-0.01,0.18l-0.09,0l0.01,-0.18zm9.01,-14.46l0.09,0l0,0.09c-0.01,0.12 -0.07,0.18 -0.19,0.18l-0.09,0l0,-0.09c0.02,-0.12 0.08,-0.18 0.19,-0.18zm3.04,26.58l0,0.09l0.27,0.01l0,-0.09l-0.27,-0.01z" class="st0"/>
	<path id="svg_3" fill="#CC151A" d="m182.46999,44.25999l0.27,0.01c0.1,0.87 0.25,1.67 0.45,2.4c0.17,0.22 0.25,0.53 0.24,0.93l-0.03,0.73c0.55,0.8 1.73,1.79 3.54,2.98c4.16,4.26 6.18,7.88 6.06,10.87c-0.03,0.65 -0.23,1.17 -0.61,1.53l-0.02,0.55c-0.1,2.36 -0.86,4.71 -2.3,7.05c-2.07,2.43 -3.51,4.05 -4.32,4.86c-1.24,0.97 -2.51,2.08 -3.8,3.32c-0.15,0.04 -1.29,0.91 -3.4,2.61c-0.66,0.4 -2.06,1.05 -4.2,1.93c-2.01,1.67 -3.8,2.97 -5.38,3.9c-1,1.3 -1.73,1.94 -2.18,1.92c-1.12,0.55 -1.68,0.89 -1.69,1.03c-0.72,1.92 -1.55,2.87 -2.5,2.83c-0.61,1.03 -1.03,1.59 -1.26,1.69l-0.18,-0.01l-0.08,-0.19l0.03,-0.64l-0.27,-0.01c-1.62,2.21 -2.56,3.72 -2.84,4.55l-0.37,0.08l-0.08,-0.19c0.01,-0.29 0.65,-1.82 1.93,-4.59c0.01,-0.26 0.05,-0.59 0.13,-1l-0.09,0c-0.25,0.16 -1.24,0.36 -2.95,0.61c-1.32,0.57 -3.31,1.5 -5.97,2.78c-0.06,0 -0.15,0.02 -0.28,0.08c-0.12,-0.07 -0.21,-0.1 -0.27,-0.1l0.01,-0.27c0.76,-0.26 1.29,-0.69 1.61,-1.31c-0.37,-0.01 -1.55,0.52 -3.54,1.59c-0.34,0.08 -1.52,0.58 -3.54,1.5c-1.27,0.16 -2.41,0.42 -3.42,0.78l-0.09,0l-0.08,-0.19l0.01,-0.18c1.17,-0.62 2.66,-1.2 4.47,-1.74c2.23,-1.08 3.98,-2.17 5.26,-3.26c1.07,-0.17 2.49,-1.15 4.24,-2.94c0.39,-0.27 1.98,-1.09 4.77,-2.46c1.32,-1.04 2,-1.96 2.03,-2.75c-0.24,-0.1 -0.41,-0.32 -0.52,-0.66c0.61,-1.39 0.91,-2.14 0.92,-2.25c-0.2,0.11 -0.39,0.17 -0.56,0.16l-0.09,0l-0.43,-0.75l-0.18,-0.01c-0.01,0.15 -0.48,0.62 -1.43,1.41l-0.46,-0.02l0,-0.09c0.27,-0.65 0.8,-1.57 1.58,-2.77l-0.36,-0.11c0.01,-0.37 0.55,-1.47 1.6,-3.32c0.57,-1.93 1.05,-3.37 1.46,-4.33c1.57,-0.99 2.39,-2.39 2.46,-4.2c0.02,-0.38 0.4,-0.73 1.14,-1.05c0.24,0.01 0.63,-1.26 1.16,-3.8c1.43,-2.63 2.49,-3.93 3.18,-3.9c0.25,-0.26 0.56,-0.92 0.9,-1.98c-0.05,-0.34 -0.07,-0.61 -0.06,-0.83l0.02,-0.46c0.96,-1 1.45,-1.89 1.48,-2.69l0.52,-1.63l-2.16,-1c-3.76,-1.07 -5.87,-1.7 -6.33,-1.91c-0.17,-0.24 -0.26,-0.45 -0.25,-0.65c0.18,0.01 0.29,-0.26 0.31,-0.81c-1.12,-0.29 -2.24,-0.46 -3.37,-0.5l-0.07,-0.46l0,-0.09l0.64,-0.07c0,0.06 0.03,0.09 0.09,0.1l0.01,-0.18l0.64,0.12l0.46,0.02c0.34,0.01 0.58,-0.1 0.75,-0.34c-0.41,-0.14 -1.59,-0.31 -3.55,-0.51c-0.47,-0.32 -0.71,-0.55 -0.71,-0.67l0.01,-0.18c0.24,0.01 0.79,0.06 1.64,0.16c0.9,-0.09 1.58,-0.12 2.02,-0.1l3.11,0.13c1.97,-0.04 3.04,-0.06 3.21,-0.05l2.65,0.11c2.12,0.09 4.29,0.57 6.53,1.46l1.26,0.42c0.02,-0.61 0.13,-0.91 0.31,-0.9l0.18,0.01c0.28,0.58 0.42,0.89 0.42,0.93c0.12,-0.06 0.22,-0.08 0.28,-0.08l-0.08,-0.19l0.03,-0.64c0.02,-1.44 0.14,-2.14 0.33,-2.13zm-31.51,51.9c0.01,0.12 0.07,0.19 0.18,0.19l0.1,-0.18l-0.28,-0.01zm7.84,-50.67l0.46,0.02l0.07,0.46l0,0.09l-0.65,0.16l-0.08,-0.19l0.01,-0.37c0.02,-0.12 0.08,-0.18 0.19,-0.17zm-0.23,39.17l0.46,0.02l0.07,0.46l-0.01,0.18l-0.46,0.07l-0.18,-0.01l-0.07,-0.46l0,-0.09c0.02,-0.12 0.08,-0.17 0.19,-0.17zm1.78,-36.82l0.18,0.01c0.73,0.03 1.09,0.23 1.07,0.59c-0.17,0.48 -0.49,0.71 -0.94,0.69l-0.27,-0.01c-0.18,-0.07 -0.26,-0.25 -0.25,-0.56l0,-0.09l0.21,-0.63zm21.19,7.82c-0.07,0.47 -0.58,1.12 -1.54,1.95c-0.01,0.14 -0.53,1.09 -1.58,2.86c-0.31,2.31 -0.78,3.45 -1.42,3.42c-0.68,0.26 -1.05,1.01 -1.1,2.24c-0.94,2.05 -1.42,3.37 -1.44,3.97c-0.62,0.72 -1.22,1.83 -1.78,3.31c-0.06,0 -0.25,0.23 -0.58,0.71l0.07,0.64l0,0.09c-0.01,0.12 -0.57,1.14 -1.68,3.04c-0.08,0.41 -0.12,0.74 -0.13,1l-0.08,2.01l0.09,0c2.49,-1.56 4.82,-3.36 6.99,-5.39c0.26,0.01 0.62,-0.52 1.07,-1.6c1.19,-0.82 3.6,-3.07 7.23,-6.75c0.72,-1.16 1.1,-2.18 1.13,-3.07l0.03,-0.82c0.09,-2.19 -1.2,-4.35 -3.86,-6.47c-0.34,-0.54 -0.82,-0.93 -1.42,-1.14zm-2.1,-11.16c0.49,0.02 0.72,0.21 0.71,0.58c-0.01,0.2 0.02,0.35 0.07,0.46c-0.1,0.3 -0.32,0.44 -0.66,0.43c-0.47,-0.37 -0.71,-0.62 -0.7,-0.76c0.01,-0.32 0.2,-0.56 0.58,-0.71zm2.18,-2.02l0.37,0.01l0.07,0.46l-0.01,0.18l-0.46,0.07l-0.18,-0.01l-0.08,-0.37c0.11,-0.22 0.2,-0.34 0.29,-0.34zm-0.73,13.52c0,0.06 -0.04,0.15 -0.1,0.27l0,0.09l0.09,0c0,-0.06 0.04,-0.15 0.1,-0.27l0,-0.09l-0.09,0z" class="st0"/>
	<path id="svg_4" fill="#CB1517" d="m140.45999,108.33999c0,0.12 0.03,0.18 0.09,0.18l-0.33,2.4c1.76,0.8 4.11,3.07 7.03,6.8c1.55,2.03 2.34,3.79 2.37,5.28l0.01,0.56c0.01,0.37 -0.24,0.86 -0.75,1.45l0.01,0.47c0.05,2.57 -0.81,5.12 -2.6,7.67c0.01,0.73 -1.17,2.09 -3.57,4.08c0.01,0.28 -1.45,1.46 -4.36,3.51c-0.91,0.06 -1.93,0.4 -3.05,1c-2.37,1.6 -3.83,2.77 -4.36,3.51c0.01,0.54 -1.74,1.5 -5.25,2.88c-0.19,0.15 -0.48,0.73 -0.86,1.72c-0.33,0.17 -0.67,0.91 -1.03,2.22l-0.2,0c-0.13,0 -0.2,-0.06 -0.21,-0.2l0.73,-2.86l-0.09,0c-0.21,0.12 -0.4,0.19 -0.58,0.19l-0.69,0.01c-0.82,0.02 -2.58,0.85 -5.28,2.5l-0.38,0.1c-0.14,-0.06 -0.24,-0.08 -0.32,-0.08l0,-0.2c0.78,-0.54 1.17,-0.96 1.16,-1.26c-0.48,0.01 1.48,-3.08 1.8,-3.93c0.38,-0.49 1.74,-1.31 4.09,-2.48c0.65,-0.54 0.96,-1.05 0.95,-1.54l0,-0.18c0.45,-0.01 0.72,-0.84 0.82,-2.5l-0.09,0l-0.49,0.12l-0.01,-0.38c-0.01,-0.39 0.4,-1.51 1.21,-3.36c0.23,-1.14 0.7,-2.54 1.39,-4.22l0,-0.2c-0.28,-0.52 -0.42,-0.8 -0.42,-0.84c0.42,-1.43 1.32,-4.01 2.71,-7.76l0,-0.2l-0.12,-1.32c0.5,-1.13 0.74,-2.02 0.73,-2.68c0.34,-0.01 0.52,-1 0.52,-2.97c0.51,-0.71 0.76,-1.13 0.76,-1.25l-0.09,0c-1.83,-0.47 -3.13,-1.11 -3.89,-1.91c0.13,-0.42 0.19,-0.71 0.18,-0.88l0,-0.09c-0.09,0 -0.45,-0.05 -1.08,-0.16c-0.65,0.13 -1.21,0.2 -1.68,0.21l-0.09,-0.18l0,-0.11c0,-0.12 0.65,-0.42 1.95,-0.89l0,-0.09l-0.49,-0.08c-0.8,0.2 -1.29,0.29 -1.47,0.3c-1.52,0.03 -2.29,-0.08 -2.29,-0.33l0,-0.09c0,-0.24 0.92,-0.48 2.76,-0.73c1.24,-0.46 2.78,-0.71 4.6,-0.74c3.89,0.21 5.83,0.38 5.83,0.53c0.16,0 0.76,0.18 1.78,0.55l0.6,-0.1c0.46,0.36 0.72,0.55 0.79,0.54c0.27,-1.39 0.68,-2.1 1.23,-2.11l0.02,0.12zm-22.87,42.9l0,0.11l0.18,0l0,-0.11l-0.18,0zm3.62,-40.22l0.49,-0.01l0.1,0.47l0,0.09l-0.69,0.22c-0.14,-0.15 -0.21,-0.27 -0.21,-0.38c0.11,-0.26 0.21,-0.39 0.31,-0.39zm3.17,1.75c0.3,0.11 0.47,0.24 0.5,0.37l0.01,0.38c-0.22,0.44 -0.54,0.66 -0.97,0.67l-0.18,0c-0.18,0 -0.32,-0.25 -0.42,-0.75l0,-0.09c0.25,-0.38 0.6,-0.57 1.06,-0.58zm0.94,26.43l0,0.2l0.09,0l0,-0.2l-0.09,0zm11.69,-16.61l0.03,1.34c-0.14,1.08 -0.43,1.62 -0.86,1.63c-0.52,0.01 -0.8,0.9 -0.82,2.68c-0.36,0.84 -0.6,1.86 -0.74,3.06c-0.47,0.59 -0.96,1.77 -1.5,3.55c-0.38,0.57 -0.86,0.97 -1.45,1.17c-0.26,0.44 -0.5,1.3 -0.73,2.59l0.09,0c1.3,-0.79 2.95,-1.96 4.97,-3.53c0.51,-0.01 0.99,-0.72 1.44,-2.13c1.95,-1.62 3.4,-3.26 4.33,-4.92c0.82,-1.41 1.22,-2.62 1.2,-3.65l0,-0.09c-0.02,-0.81 -0.33,-1.4 -0.93,-1.8c-0.32,-1.2 -0.76,-1.8 -1.31,-1.79c-0.65,-1.06 -1.25,-1.59 -1.8,-1.58c-1.11,1.44 -1.74,2.6 -1.92,3.47zm-0.71,-15.01l1.1,-0.02l0.19,0.65c0.01,0.51 -0.25,0.77 -0.77,0.78l-0.29,0.01c-0.28,-0.47 -0.42,-0.78 -0.42,-0.93c0.13,-0.23 0.2,-0.39 0.19,-0.49zm3.33,-1.5l0.29,-0.01c0.1,0 0.24,0.12 0.41,0.37l0,0.18c-0.07,0.2 -0.27,0.3 -0.6,0.3l-0.09,0c0,-0.09 -0.07,-0.22 -0.21,-0.38c0.14,-0.2 0.21,-0.36 0.2,-0.46zm1.89,5.96l0,0.09c0.33,0.25 0.53,0.37 0.59,0.37l0,-0.09l-0.59,-0.37z" class="st1"/>
	<path id="svg_5" fill="#CB1517" d="m139.53999,141.56999l0.36,-0.01c0.18,0.06 0.27,0.23 0.28,0.53l0,0.18l-0.45,0.1l-0.09,0c-0.09,0 -0.18,-0.12 -0.28,-0.35c0.13,-0.19 0.19,-0.34 0.18,-0.45zm14.05,-31.81c0.46,-0.01 1.12,0.22 1.98,0.68c0.75,0.04 1.2,0.07 1.34,0.06l2.14,-0.4l0.27,-0.01c0.01,0.27 0.19,0.47 0.55,0.62c0.61,-0.31 1.74,-0.48 3.39,-0.52l0.45,-0.01c0.9,-0.02 1.53,0.24 1.9,0.77c0.24,0.11 0.45,0.17 0.63,0.17c1.06,-0.02 1.77,-0.3 2.13,-0.85c0.12,0 0.18,-0.03 0.18,-0.09c1.69,-0.03 2.8,0.27 3.33,0.92c0,0.1 0.72,0.21 2.16,0.31l0.09,0.18l0,0.09c0,0.15 -0.23,0.3 -0.71,0.46l0,0.09c0,0.13 0.96,0.35 2.88,0.66c0.51,0.21 1.35,0.35 2.52,0.4l0.18,0.27c-0.43,0.19 -0.93,0.29 -1.52,0.3l-2.96,-0.21c-1.34,0.03 -2.14,0.31 -2.4,0.85c0,0.06 -0.03,0.09 -0.09,0.09l-1.25,0.03c-0.77,0.25 -1.19,0.38 -1.25,0.38l0.1,0.45l0,0.09c-0.04,0 -0.28,0.04 -0.71,0.1c-2.57,-0.01 -4.15,-0.01 -4.75,0.01c-0.42,0.11 -0.62,0.3 -0.62,0.55l-0.27,0.01c-0.51,0.01 -1.31,0 -2.42,-0.04l-0.08,0.63c0.19,0.41 0.28,0.65 0.28,0.71c-0.37,2.46 -0.82,3.9 -1.35,4.33c-0.64,0.94 -0.95,1.96 -0.92,3.06l-0.14,1.7c0.58,0.65 1.42,0.96 2.53,0.93c0.55,-0.01 1,-0.26 1.33,-0.74l0.27,-0.01c0.37,-0.01 0.85,0.07 1.44,0.24l0.54,-0.1l0.27,-0.01c0.51,0.71 1.41,1.05 2.71,1.02l0.09,0.18l0.01,0.27c-0.25,0.01 -0.43,0.16 -0.53,0.46c1.69,0.38 3.46,0.65 5.3,0.79l0.09,0.18c0,0.16 -0.29,0.29 -0.89,0.38c-0.54,0.01 -1.7,-0.06 -3.5,-0.2c-0.19,0 -0.43,0.1 -0.71,0.28l-0.81,0.02c-0.25,0.01 -0.55,0.22 -0.88,0.64l-0.9,0.02c-0.28,0.01 -0.79,0.11 -1.52,0.3l0,0.09l0.18,0.27l0,0.09c0,0.12 -0.06,0.18 -0.18,0.18c-2.24,-0.01 -3.61,-0.02 -4.12,-0.01c-0.1,0.42 -0.54,0.64 -1.33,0.65c0,0.07 -0.59,0.39 -1.77,0.93l-1.02,2.62c-0.32,0.41 -0.73,0.75 -1.23,1.01c-0.34,0.93 -0.5,1.62 -0.5,2.07l0.01,0.27l0.45,0.08l0.45,-0.01c0.77,-0.55 1.71,-0.84 2.85,-0.86c0.48,0.33 0.73,0.54 0.73,0.61c2.99,-0.78 4.62,-1.17 4.9,-1.17l0.18,0c0.64,-0.01 1.15,0.01 1.52,0.06c0.43,-0.07 0.97,-0.11 1.61,-0.12l0.45,-0.01c0.28,-0.01 0.92,0.25 1.9,0.77l0.27,-0.01c1.43,-0.03 2.5,-0.38 3.2,-1.05l0.18,0c2.49,-0.05 3.9,0.19 4.22,0.72c0,0.24 0.96,0.4 2.88,0.48l0.09,0.18l0,0.09l-0.71,0.46l-0.09,0.18l0.18,0.09c0.75,-0.02 2.33,0.19 4.76,0.62c0.84,-0.02 1.26,0.06 1.26,0.24l0,0.09c0,0.18 -0.38,0.28 -1.16,0.29l-2.42,0.05c-0.48,0.01 -1.1,-0.01 -1.88,-0.05c-0.19,0.12 -0.37,0.19 -0.53,0.19l-0.81,0.02c-0.49,0.01 -0.88,0.23 -1.15,0.65c-0.19,0.12 -0.37,0.19 -0.53,0.19c-0.75,-0.04 -1.14,-0.07 -1.17,-0.07c-0.86,0.2 -1.43,0.36 -1.69,0.48c0.12,0.19 0.19,0.37 0.19,0.53l-0.8,0.2c-0.39,0.01 -0.9,-0.01 -1.52,-0.06c-3.82,0.29 -5.72,0.5 -5.72,0.65c0,0.24 -0.05,0.36 -0.17,0.36l-6.17,0.57c-1.67,0.26 -2.5,0.51 -2.49,0.77c-0.1,0.09 -0.7,0.19 -1.79,0.3c-0.13,0.18 -0.34,0.28 -0.62,0.28l-0.09,0c-0.21,0 -0.48,-0.02 -0.81,-0.07c-1.24,0.68 -2.43,1.03 -3.56,1.06c-0.01,-0.36 -0.22,-0.53 -0.64,-0.52c0.01,0.4 -0.65,1.67 -1.98,3.8c-0.3,0.9 -0.53,1.35 -0.69,1.36l-0.18,0l0,-0.09c-0.02,-0.79 0.43,-2.2 1.35,-4.24c0.16,-0.78 0.24,-1.29 0.24,-1.53c-2.16,-0.52 -3.25,-1.01 -3.25,-1.46l-0.01,-0.72l0.08,-0.45c-1.02,-0.22 -1.53,-0.45 -1.54,-0.69c0.53,-0.34 0.8,-0.55 0.79,-0.64l0,-0.09c-0.5,-0.15 -1.36,-0.32 -2.61,-0.48l-0.18,-0.27l0,-0.18c0.53,-0.13 1.04,-0.23 1.52,-0.3c0.31,0.05 0.49,0.08 0.54,0.08c1.25,-0.03 2.92,-0.48 4.99,-1.35c0,-0.18 0.31,-1.11 0.93,-2.8c0.12,-0.66 0.49,-1.8 1.1,-3.43l0,-0.09c0,-0.1 -0.1,-0.37 -0.28,-0.8c0,-0.12 0.08,-0.42 0.25,-0.9c-0.25,0.01 -0.59,-0.59 -1.02,-1.77l-0.45,0.01c-0.09,0 -0.18,-0.09 -0.27,-0.26l-0.01,-0.27c0.24,0 0.35,-0.19 0.35,-0.54c-0.64,-0.11 -1.33,-0.15 -2.06,-0.14l-0.18,0c-0.12,0 -0.18,-0.06 -0.18,-0.18l0,-0.09c0,-0.21 0.62,-0.37 1.87,-0.49c1.25,-0.4 1.87,-0.65 1.87,-0.75c-0.24,-0.05 -0.36,-0.23 -0.37,-0.53l0.63,-0.1c0.54,0.11 0.93,0.16 1.17,0.16c0.48,-0.01 0.69,-1.24 0.64,-3.69c0.51,-1.31 0.76,-2.24 0.75,-2.79l-0.03,-1.25c-0.01,-0.48 0.28,-0.99 0.86,-1.54c-1.04,-0.59 -1.74,-1.08 -2.09,-1.48c-0.02,-0.09 -0.59,-0.41 -1.72,-0.95c-0.18,-0.22 -0.28,-0.43 -0.28,-0.62l-0.01,-0.45l0.08,-0.63c-0.36,0.01 -0.69,-0.2 -1,-0.61l0,-0.18c0.48,-0.11 0.71,-0.24 0.71,-0.37c-0.27,-0.23 -1.08,-0.46 -2.43,-0.67l-0.1,-0.36c0.22,-0.12 0.46,-0.19 0.71,-0.19l2.6,-0.05c1.91,-0.58 2.98,-0.87 3.2,-0.87zm-11.76,34.01l0.27,-0.01c0.6,-0.01 0.9,0.16 0.91,0.52c-0.24,0.6 -0.56,0.91 -0.97,0.92c-0.31,0.01 -0.53,-0.26 -0.64,-0.79c0.07,-0.37 0.22,-0.58 0.43,-0.64zm3.37,-15.03c0.24,0.08 0.36,0.17 0.36,0.26l0.01,0.45c-0.21,0.06 -0.33,0.1 -0.36,0.1c-0.24,-0.08 -0.36,-0.17 -0.36,-0.26l-0.01,-0.27c0,-0.15 0.12,-0.25 0.36,-0.28zm0.18,-17.47l0.36,-0.01c0.18,0.06 0.27,0.23 0.28,0.53l0,0.09l-0.44,0.19c-0.24,-0.05 -0.36,-0.23 -0.37,-0.53c0.12,0 0.18,-0.09 0.17,-0.27zm2.36,19.21c0.42,-0.01 0.63,0.17 0.64,0.52l0,0.18c-0.14,0.36 -0.38,0.55 -0.71,0.55l-0.36,0.01c-0.1,0 -0.23,-0.17 -0.37,-0.53c0.1,-0.48 0.37,-0.72 0.8,-0.73zm-0.26,-17.1c0.66,-0.01 0.99,0.22 1,0.7c-0.26,0.42 -0.58,0.64 -0.97,0.65c-0.3,-0.08 -0.45,-0.29 -0.46,-0.62l-0.01,-0.36c0,-0.1 0.15,-0.22 0.44,-0.37zm0.63,13.24l0.45,-0.01l0.19,0.44c-0.05,0.24 -0.23,0.36 -0.53,0.37l-0.28,-0.35l0,-0.09c0.11,-0.15 0.17,-0.27 0.17,-0.36zm11.1,-17.96l0.63,-0.01l0.1,0.36c-0.05,0.24 -0.26,0.36 -0.62,0.37l-0.19,-0.44c0.06,-0.13 0.08,-0.22 0.08,-0.28zm0.87,11.81l0,0.18c0.12,0 0.18,-0.06 0.18,-0.18l-0.18,0z" class="st1"/>
	<path id="svg_6" fill="#CB1517" d="m173.11999,103.86999c0.36,-0.01 0.54,0.32 0.56,0.97c-0.08,0.3 -0.29,0.45 -0.62,0.46l-0.18,0c-0.1,0 -0.29,-0.2 -0.55,-0.62l-0.01,-0.36c0,-0.12 0.26,-0.28 0.8,-0.45zm30.66,-16.29l0.18,0c0.12,0 0.18,0.09 0.18,0.27c-0.88,2.94 -1.82,5.47 -2.8,7.58c0.02,1 -0.39,2.86 -1.23,5.58c0.04,2.04 -0.23,3.57 -0.8,4.58c-1.03,2.38 -1.73,4.33 -2.12,5.87l0.18,0c0,-0.12 0.26,-0.42 0.79,-0.91c0.48,-1.38 0.91,-2.08 1.3,-2.09l0,0.09c0.01,0.39 -0.3,1.44 -0.92,3.15c0.01,0.3 -0.19,0.99 -0.59,2.07c0.01,0.28 -0.16,0.73 -0.51,1.35l0,0.18c0,0.15 0.1,0.42 0.28,0.8c-0.56,0.95 -0.93,1.91 -1.11,2.89l0.45,-0.1l0.09,0c0.01,0.42 -0.45,1.32 -1.38,2.72c0.01,0.25 -0.48,1.16 -1.47,2.72c-0.12,0.2 -0.17,0.38 -0.17,0.54l0,0.09c0.13,0.42 0.19,0.65 0.19,0.71c0.01,0.3 -0.54,1.38 -1.64,3.26c0.01,0.31 -0.42,1.31 -1.28,2.98c0.02,1 -0.17,1.72 -0.58,2.16c0.01,0.49 -0.16,0.94 -0.51,1.35c-0.13,1.85 -0.47,2.79 -1.02,2.8c-1.06,0.75 -1.58,1.57 -1.56,2.45c-0.28,1.08 -0.89,1.93 -1.83,2.55c-0.45,0.47 -0.93,0.75 -1.42,0.83c-0.15,0 -0.48,-0.05 -0.99,-0.16c0.01,0.48 -0.16,0.72 -0.52,0.73l-0.36,0.01c-0.3,-0.16 -0.46,-0.39 -0.46,-0.71l0.17,-0.36c-0.92,-0.5 -1.41,-0.94 -1.46,-1.31l-0.27,0.01c-0.19,0.9 -0.54,1.35 -1.05,1.36l0,-0.09c0.33,-1.4 0.49,-2.2 0.49,-2.43c-0.28,-0.79 -0.88,-2.03 -1.78,-3.73c-0.12,-0.24 -0.19,-0.44 -0.19,-0.62l-0.18,0c0.01,0.42 -0.11,0.63 -0.35,0.63c-0.13,0 -0.23,-0.14 -0.28,-0.44c0.04,-1.11 0.05,-1.79 0.05,-2.06c-0.01,-0.57 -0.33,-1.55 -0.96,-2.94c-0.01,-0.28 -0.58,-2.18 -1.73,-5.7l-0.79,-3.75c0.1,-1.02 0.18,-1.59 0.23,-1.71l-0.32,-2.32l-0.02,-0.81c-0.01,-0.6 0,-1.31 0.05,-2.15c-0.39,-1.41 -0.59,-2.78 -0.62,-4.11l0,-0.09c0.03,-1.31 0.17,-1.97 0.41,-1.98c0.39,0.11 0.66,0.17 0.81,0.16l0.18,0l0.07,-0.9c0,-0.09 -0.07,-0.57 -0.21,-1.43l-0.02,-0.98l0.08,-0.45l0.36,-0.01c0.19,1.43 0.42,2.14 0.67,2.14l0.27,-0.01c-0.19,-0.77 -0.3,-1.31 -0.3,-1.61c0.26,-2.11 0.38,-3.28 0.38,-3.5l0.36,-0.01c0.31,0.55 0.64,1.94 0.98,4.19c0.43,0.53 0.74,1.24 0.94,2.13c0.54,0.15 0.82,0.57 0.83,1.24c0.36,1.07 0.61,1.6 0.75,1.6l0.35,-0.19c0.31,-0.01 0.65,1.87 1.01,5.62c0.74,0.94 1.11,1.86 1.13,2.75l-0.08,0.54l0.01,0.45c0.23,2.61 0.53,4.07 0.89,4.37c0.25,0.4 0.38,1.02 0.4,1.87c0,0.13 -0.02,0.46 -0.07,0.99c0.37,0.72 0.56,1.32 0.57,1.78c0,0.24 -0.31,0.81 -0.95,1.72l-0.08,0.54l0.18,0c-0.01,-0.39 0.31,-0.75 0.96,-1.09c-0.01,-0.25 0.56,-1.91 1.69,-4.96c0.42,-1.43 1.05,-2.57 1.9,-3.44c0.7,-0.61 1.67,-2.84 2.91,-6.69c0.39,-0.8 0.66,-2.12 0.82,-3.96c0.8,-1.78 1.78,-3.74 2.93,-5.88c-0.01,-0.67 0.56,-1.82 1.72,-3.44c0.59,-0.39 1.11,-1.17 1.56,-2.36c0.81,-2.78 1.4,-4.43 1.78,-4.96l0.09,0l0.01,0.63c-0.11,0.58 -0.16,0.91 -0.16,0.99l0.01,0.27c0.02,0.12 0.08,0.18 0.18,0.18l0.09,0c0.65,-2.45 1.31,-4.1 1.96,-4.97c0.71,-1.81 1.45,-3.5 2.27,-5.06zm-28.64,14.37l0.18,0c0.09,0 0.18,0.09 0.27,0.26l0.01,0.27c0,0.12 -0.06,0.18 -0.18,0.18l-0.45,0.01c0,-0.13 -0.03,-0.25 -0.1,-0.36c0.09,-0.24 0.18,-0.36 0.27,-0.36zm2.88,36.58l0.45,-0.01l0.1,0.45l-0.35,0.28l-0.27,0.01c0,-0.09 -0.06,-0.21 -0.19,-0.35c0.09,-0.26 0.18,-0.38 0.26,-0.38zm1.75,6.41l0.45,-0.01l0.1,0.45c0,0.09 -0.09,0.18 -0.26,0.27l-0.45,0.01c0,-0.13 -0.03,-0.25 -0.1,-0.36c0.08,-0.23 0.17,-0.36 0.26,-0.36zm1.32,-1.01l0.54,-0.01l0.1,0.45l0,0.09c0,0.12 -0.06,0.18 -0.18,0.18l-0.36,0.01c-0.12,0 -0.18,-0.09 -0.18,-0.27l0.08,-0.45zm16.11,-31.95l0,0.18c0.12,0 0.18,-0.06 0.18,-0.18l-0.18,0z" class="st1"/>
	<path id="svg_7" fill="#CB1517" d="m204.32999,106.17999l0.09,0c0.01,0.31 -0.04,0.94 -0.14,1.88c0,0.16 0.16,0.49 0.47,0.98c-0.04,0.87 -0.06,1.34 -0.06,1.43c0.19,0.77 0.36,2.92 0.49,6.44c-0.32,1.26 -0.97,2.98 -1.96,5.15c-0.11,0.26 -0.21,1.42 -0.29,3.5c-0.65,0.48 -0.96,1.02 -0.95,1.63c0.07,0.52 0.11,0.82 0.11,0.89c-0.33,1.19 -0.52,2.41 -0.55,3.68c-0.79,2.2 -1.18,3.64 -1.17,4.32c-0.28,1.02 -0.42,1.59 -0.41,1.71l0.01,0.54c-0.36,0.49 -0.59,0.88 -0.69,1.18c0.19,0.29 0.28,0.53 0.28,0.71c-0.44,2.64 -0.86,3.96 -1.26,3.97c-0.82,0.69 -1.22,1.53 -1.2,2.53c-0.16,0.41 -0.36,0.68 -0.61,0.82c-0.12,0 -0.21,-0.29 -0.29,-0.89c-0.06,0 -0.15,-0.03 -0.27,-0.08c0.01,0.39 -0.62,1.92 -1.88,4.61c0.01,0.49 -0.16,0.88 -0.51,1.17l-0.18,0l0,-0.09c-0.02,-0.76 0.37,-2.35 1.16,-4.77l-0.01,-0.36c0,-0.13 -0.03,-0.25 -0.1,-0.36c0.28,-0.99 0.42,-1.62 0.41,-1.89c-0.21,-0.71 -0.34,-1.07 -0.38,-1.07c0.33,-1.38 0.49,-2.43 0.47,-3.14l-0.18,0.09l-0.36,0.01l-0.01,-0.36c0.22,-0.95 0.46,-2.47 0.71,-4.58c0.39,-1.47 0.58,-2.55 0.56,-3.24c-0.09,0 -0.21,-0.12 -0.37,-0.35l0,-0.09c-0.01,-0.37 0.18,-1.45 0.56,-3.24c-0.24,0 -0.36,-0.14 -0.37,-0.44l0,-0.18c0.27,-1.23 0.4,-2.25 0.39,-3.05l-0.01,-0.54c-0.01,-0.6 -0.08,-1.19 -0.22,-1.79c0.18,-0.77 0.61,-1.82 1.28,-3.16c0.12,-0.18 0.23,-0.6 0.33,-1.26c-0.13,-0.36 -0.22,-0.53 -0.28,-0.53c0.06,-0.06 0.11,-0.45 0.16,-1.17l-0.28,-0.62c-0.01,-0.25 0.16,-1 0.49,-2.25c-0.01,-0.51 -0.08,-0.98 -0.21,-1.43c-0.01,-0.36 0.43,-0.87 1.31,-1.55c0.01,-0.19 0.71,-0.98 2.1,-2.37l0.81,-0.02l0.63,0.08c0.15,-0.54 0.39,-0.81 0.7,-0.82c0.19,0.29 0.28,0.5 0.28,0.62l0.09,0c0.14,-1.2 0.37,-1.8 0.68,-1.81c0.13,0 0.22,-0.12 0.26,-0.36c0.12,-0.04 0.24,-0.07 0.37,-0.08zm-3.59,-0.37l0.81,-0.02l0.19,0.62l0.01,0.36c-0.14,0.3 -0.38,0.46 -0.71,0.46c-0.12,0 -0.33,-0.23 -0.64,-0.7c0.09,-0.48 0.21,-0.72 0.34,-0.72zm2.84,-1.58l0.45,-0.01l0.1,0.45l0,0.18l-0.45,0.1l-0.27,0.01l-0.1,-0.36c0.09,-0.25 0.18,-0.37 0.27,-0.37z" class="st1"/>
	<path id="svg_8" fill="#CB1517" d="m200.58999,140.24999c0.57,-0.01 0.86,0.24 0.87,0.74l0.01,0.27c-0.47,0.26 -0.78,0.4 -0.93,0.4c-0.38,-0.11 -0.57,-0.29 -0.57,-0.55c-0.03,-0.56 0.18,-0.85 0.62,-0.86zm15.34,-35.47l0.29,-0.01c0.91,2.15 1.38,4.04 1.41,5.68l0.03,1.41c0.02,1.01 -0.36,2.19 -1.14,3.54l-0.09,0l-0.01,-0.27l-0.09,0c0,0.06 -0.03,0.15 -0.11,0.27l0.2,0c-1.09,1.53 -1.62,3.06 -1.59,4.6c0.01,0.51 -0.32,0.99 -1,1.45c-0.37,0.01 -0.55,0.68 -0.52,2c-0.36,0.87 -0.59,1.92 -0.7,3.15c-0.29,0.53 -0.43,1.07 -0.42,1.62c0.09,0 0.21,0.12 0.37,0.37c0.01,0.61 -0.3,2.26 -0.93,4.95c0.15,0.74 0.23,1.28 0.23,1.61l-0.34,1.91l0.18,-0.09l0.85,-0.02c0.01,0.31 0.29,0.49 0.84,0.54c1.26,-0.65 2.53,-0.99 3.81,-1.02l1.12,-0.02c0.22,0 0.89,0.24 1.99,0.72l0.18,0c1.37,-0.03 2.05,-0.33 2.04,-0.89l0.47,-0.1c1.87,-0.04 2.96,0.19 3.28,0.7c0,0.24 0.38,0.35 1.13,0.34l0.65,-0.01c0.33,-0.01 0.55,0.12 0.66,0.37l0,0.11c0,0.13 -0.24,0.27 -0.73,0.4c0.01,0.31 1.41,0.85 4.22,1.62c0.63,0.03 0.94,0.15 0.95,0.36l0,0.09c-0.06,0 -0.16,0.03 -0.29,0.1c-0.91,0.02 -2.34,-0.17 -4.29,-0.56l-0.2,0c0,0.12 -0.06,0.18 -0.18,0.18l-1.03,0.02l-0.63,0.77l-0.94,0.02c-0.12,0 -0.65,0.14 -1.58,0.41l0,0.09l0.21,0.29l0.01,0.29c-3.19,0.26 -5.12,0.39 -5.79,0.41c-0.21,0.63 -1.04,0.96 -2.49,0.99c-2.19,0.04 -3.46,0.32 -3.81,0.84c-0.63,0.07 -1.21,0.21 -1.76,0.42l-0.09,0l-0.67,-0.08c-0.35,0.44 -0.9,0.67 -1.67,0.68l-0.18,0c-0.36,0.01 -0.83,-0.14 -1.42,-0.44c0.01,0.64 -0.2,0.97 -0.63,0.98c-0.39,0.01 -0.61,-0.24 -0.66,-0.75c0,-0.19 0.09,-0.45 0.28,-0.77c-0.43,-0.38 -0.84,-0.57 -1.24,-0.56c-0.36,0.56 -0.57,0.91 -0.63,1.07l-0.18,0c-0.12,0 -0.18,-0.06 -0.18,-0.2c0,-0.18 0.08,-0.43 0.25,-0.77l-0.09,0c-0.17,0.33 -0.42,0.5 -0.73,0.51l-0.01,-0.29c0.36,-0.89 0.53,-1.43 0.53,-1.62c-0.02,-0.78 0.06,-1.32 0.24,-1.62c-0.5,-0.23 -0.75,-0.54 -0.76,-0.95c0.49,-0.1 0.73,-0.26 0.73,-0.49c-1.23,-0.45 -2.02,-0.88 -2.35,-1.27l-0.01,-0.29l0.56,-0.01c0.92,0.3 1.57,0.44 1.96,0.43l0.29,-0.01c0.16,-0.12 0.37,-0.63 0.62,-1.54c0.62,-0.45 0.92,-1.18 0.9,-2.19l-0.09,0l-0.29,0.18l-0.18,0l-0.01,-0.27c-0.01,-0.52 0.3,-1.95 0.94,-4.3c-0.01,-0.34 0.25,-1.39 0.77,-3.15c0,-0.06 -0.13,-0.25 -0.39,-0.57l-0.01,-0.27c0.18,-0.93 0.62,-2.24 1.33,-3.92c-0.01,-0.25 0.34,-1.47 1.05,-3.65l-0.11,-1.12c0.42,-0.73 0.62,-1.49 0.6,-2.3c0.28,-0.01 0.43,-0.71 0.43,-2.11c0.31,-1.14 0.73,-1.72 1.26,-1.73c0.43,-0.38 0.86,-0.58 1.31,-0.59c-0.01,-0.46 0.66,-1.14 2,-2.03c0.63,-0.01 0.94,-0.12 0.93,-0.31c0,-0.09 0.05,-0.44 0.16,-1.06l0.09,0l0.86,0.56l0.07,-0.87l-0.19,-0.65l-0.02,-1.14c0.01,-0.1 0.06,-0.16 0.17,-0.17zm-13.47,40.65l0.29,-0.01c0.04,0 0.14,0.09 0.27,0.29c-0.11,0.29 -0.23,0.45 -0.35,0.48l-0.2,0c-0.15,0 -0.24,-0.12 -0.28,-0.38c0.09,-0.25 0.18,-0.37 0.27,-0.38zm10.51,-39.91l0.09,0c0.43,-0.01 0.65,0.21 0.66,0.66l0.01,0.47c-0.06,0.2 -0.24,0.3 -0.55,0.3l-0.18,0c-0.26,-0.13 -0.45,-0.32 -0.57,-0.57l-0.01,-0.56c0.13,0 0.31,-0.11 0.55,-0.3zm1.72,-2.41l0.47,-0.01l0.1,0.47c-0.06,0.2 -0.24,0.3 -0.55,0.3l-0.09,0l-0.1,-0.47l0,-0.11c0,-0.12 0.06,-0.18 0.17,-0.18zm13.66,34.39l0,0.2l0.11,0l0,-0.2l-0.11,0z" class="st1"/>
	<g id="svg_9">
		<path id="svg_10" fill="#CB1517" d="m127.55999,8.99999c31.67,0 61.44,12.33 83.83,34.73s34.73,52.17 34.73,83.83s-12.33,61.44 -34.73,83.83s-52.17,34.73 -83.83,34.73s-61.44,-12.33 -83.83,-34.73s-34.73,-52.17 -34.73,-83.83s12.33,-61.44 34.73,-83.83s52.16,-34.73 83.83,-34.73m0,-9c-70.45,0 -127.56,57.11 -127.56,127.56s57.11,127.56 127.56,127.56s127.56,-57.11 127.56,-127.56s-57.11,-127.56 -127.56,-127.56l0,0z" class="st1"/>
	</g>
		<path id="svg_11" stroke-miterlimit="10" stroke-width="4" stroke="#CB1517" fill="none" d="m209.44999,176.46999c-0.26,3.04 -2.92,13.73 -4.32,16.29c0,0 -0.85,1.25 -1.16,1.66c-4.65,6.25 -36.02,46.18 -87.92,37.27c-49.8,-8.55 -84.48,-54.47 -84.66,-89.96c-0.1,-21.05 36.6,-44.64 57.55,-32.51c3.2,1.86 12.32,8.05 17.8,17.53c0.6,1.04 9.9,26.78 5.47,26.9c-18.17,0.5 -40.21,21.22 -39.31,24.59c0.14,0.52 1.03,0.79 0.91,1.11c-0.4,1.08 -10.68,-2.46 -11.53,-0.63c-0.1,0.21 -0.05,0.42 0,0.57c0.18,0.6 5.53,10.37 8.35,14.13c2.92,3.88 10.15,2.29 12.59,0.77c2.26,-1.42 1.32,-8.34 0.87,-10.99c-0.11,-0.67 0.44,0.47 0,0c-3.63,-3.89 3.4,4.37 17.71,-7.07c13.91,-11.12 15.94,-15.69 16.38,-15.7c2.06,-0.06 -1.89,7.56 -0.27,8.88c9.44,7.67 23.15,15.12 34.78,15.52c2.21,0.07 40.21,4.05 52.55,-14.35c1.36,-2.03 7.43,-10.97 7.43,-10.97c0.34,3.16 -2.99,14.31 -3.22,16.96z" class="st2"/>
	<g id="svg_12">
	<path id="svg_13" fill="#CB1517" d="m39.61999,120.14999c-1.13,3.13 -2.3,6.36 -3.57,9.62c-1.23,3.27 -2.59,6.57 -3.92,9.9l-1.22,3.03l-1.29,-3.13c-1.66,-4.01 -3.42,-7.99 -5.17,-11.93c-0.43,-0.93 -0.96,-2.07 -1.32,-3.2c-0.37,-1.13 -0.65,-2.3 -0.83,-3.48c-0.34,-2.37 -0.25,-4.8 0.22,-7.15l0.19,-0.87l0.19,-0.77c0.13,-0.51 0.24,-1.03 0.34,-1.57l0.61,-3.19l0.64,-3.18l0.33,-1.61c0.13,-0.63 0.32,-1.25 0.55,-1.86c0.25,-0.64 0.46,-1.08 0.68,-1.59l0.66,-1.49c0.43,-1 0.88,-1.99 1.34,-2.98l2.72,-5.94l3.45,-7.53l-0.11,8.22c-0.04,2.68 -0.16,5.37 -0.25,8.05l-0.07,1.96c-0.01,0.53 0.09,0.92 0.27,1.64l0.96,3.92l0.03,0.13l0,0.03c0.13,1.35 0.27,2.69 0.37,4.04l0.17,2.02l0.08,1c0.02,0.28 0.08,0.56 0.18,0.83c0.16,0.49 0.58,1.14 0.9,1.75l0.99,1.82l1.88,3.51zm0,0l-2.55,-3.27l-1.22,-1.58c-0.39,-0.54 -0.83,-0.96 -1.21,-1.71c-0.17,-0.35 -0.31,-0.73 -0.39,-1.11l-0.21,-1.01l-0.42,-1.99c-0.29,-1.32 -0.54,-2.65 -0.8,-3.98l0.04,0.16l-1.34,-3.8c-0.21,-0.56 -0.51,-1.47 -0.54,-2.29l-0.08,-2.07c-0.09,-2.68 -0.22,-5.37 -0.26,-8.05l3.33,0.69l-2.47,6.05c-0.41,1.01 -0.82,2.02 -1.25,3.02l-0.64,1.5c-0.2,0.49 -0.45,1.04 -0.59,1.42c-0.15,0.42 -0.27,0.85 -0.36,1.28l-0.3,1.59l-0.61,3.23l-0.64,3.22c-0.1,0.53 -0.22,1.07 -0.37,1.62l-0.21,0.82l-0.17,0.72c-0.42,1.92 -0.5,3.9 -0.27,5.85c0.1,0.98 0.29,1.95 0.56,2.89c0.27,0.96 0.62,1.82 1.06,2.89c1.67,4.08 3.06,8.22 4.46,12.38l-2.51,-0.1c1.57,-2.99 3.13,-6.01 4.81,-9.05c1.63,-3.04 3.37,-6.13 5.15,-9.32z" class="st1"/>
	</g>
		<path id="svg_14" stroke-miterlimit="10" stroke-width="4" stroke="#CB1517" fill="none" d="m63.64999,162.72999c-1.12,0.76 -3.4,2.26 -6.78,3c-2.29,0.5 -4.25,0.46 -5.6,0.34l-0.73,-0.2c-1.27,-0.34 -2.47,-0.95 -3.51,-1.81c-0.5,-0.41 -0.79,-0.86 -1.05,-1.23c-1.57,-2.26 -2.93,-5.5 -3.52,-6.97c-0.04,-2.18 -0.08,-4.36 -0.12,-6.54c0.16,-1.74 0.32,-3.48 0.47,-5.22c3.33,1.74 7.55,3.6 12.58,5.04c6.51,1.87 12.31,2.47 16.78,2.6c-0.91,2.3 -3.29,7.45 -8.52,10.99z" class="st2"/>
	<g id="svg_15">
		<path id="svg_16" fill="#CB1517" d="m96.44999,126.33999c0.07,0.18 0.09,0.19 0.05,0.44l-0.07,0.59l-0.17,1.17c-0.12,0.78 -0.27,1.56 -0.44,2.34c-0.33,1.55 -0.74,3.09 -1.22,4.61c-0.48,1.52 -1.04,3.02 -1.68,4.49c-0.64,1.47 -1.34,2.92 -2.13,4.32l-1.38,-2.08c2.44,-0.5 4.88,-0.98 7.31,-1.52l-0.16,0.03c0.66,-0.21 1.27,-0.57 1.76,-0.98c0.52,-0.44 1.01,-0.96 1.37,-1.48c0.73,-1.05 1.02,-2.05 0.92,-3.42c-0.06,-0.67 -0.23,-1.4 -0.47,-2.13c-0.26,-0.73 -0.58,-1.47 -0.96,-2.22c-0.4,-0.75 -0.77,-1.45 -1.27,-2.15c-0.24,-0.35 -0.51,-0.68 -0.78,-1.02l-0.43,-0.5l-0.22,-0.25c-0.02,-0.03 -0.11,-0.1 -0.08,-0.11c0.04,-0.01 0.07,-0.07 0.05,-0.13zm-0.16,-0.36c0.08,-0.01 0.2,0 0.32,0.04c0.13,0.05 0.13,0.04 0.21,0.07l0.34,0.11c0.22,0.08 0.44,0.17 0.66,0.26c0.44,0.18 0.86,0.42 1.27,0.66c0.81,0.5 1.6,1.16 2.25,1.84c0.67,0.69 1.3,1.45 1.82,2.32c0.54,0.86 0.98,1.82 1.25,2.89c0.27,1.07 0.34,2.27 0.1,3.45c-0.25,1.18 -0.79,2.3 -1.51,3.18c-0.71,0.89 -1.55,1.59 -2.49,2.16c-0.97,0.59 -2.01,0.96 -3.08,1.18l-0.15,0.03l-0.01,0c-2.48,0.23 -4.95,0.52 -7.43,0.79l-3.03,0.33l1.65,-2.41c0.86,-1.26 1.69,-2.54 2.45,-3.88c0.76,-1.33 1.47,-2.7 2.12,-4.1c0.65,-1.4 1.24,-2.83 1.75,-4.3c0.26,-0.73 0.5,-1.47 0.73,-2.21l0.34,-1.12l0.16,-0.56c0.04,-0.16 0.14,-0.53 0.28,-0.73z" class="st1"/>
	</g>
	<g id="svg_17">
		<path id="svg_18" fill="#CB1517" d="m81.37999,104.96999l4.77,2.62l4.58,2.54l4.41,2.52c1.46,0.82 2.86,1.69 4.28,2.54l-2.36,1.55c-0.62,-2.66 -1.19,-5.33 -1.73,-8c-0.26,-1.35 -0.55,-2.56 -0.9,-3.86c-0.33,-1.28 -0.7,-2.58 -1.09,-3.82l0.26,0.54l-2.71,-3.93l0.15,0.2l-3.16,-3.6l-1.59,-1.85l-0.26,-0.34l-0.17,-0.24l-0.35,-0.49l-0.7,-0.97c-1.84,-2.61 -3.65,-5.24 -5.47,-7.87l3,-1.29l0.33,2.47l0.22,2.46c0.15,1.64 0.27,3.28 0.38,4.92l0.01,0.1c-0.03,1.58 -0.04,3.15 -0.1,4.73l-0.01,-0.06l0.1,2.33l0.04,1.17l0.02,0.6c0,0.24 -0.02,0.49 -0.08,0.72c-0.03,0.11 -0.07,0.23 -0.11,0.33l-0.11,0.25l-0.22,0.51l-0.46,1.04l-0.97,2.18zm0,0l0.43,-2.22l0.24,-1.18l0.13,-0.6l0.07,-0.3c0.02,-0.08 0.02,-0.15 0.03,-0.23c0.01,-0.15 0,-0.3 -0.04,-0.44l-0.12,-0.56l-0.23,-1.14l-0.46,-2.28l-0.01,-0.06c-0.21,-1.57 -0.36,-3.13 -0.53,-4.7l0.01,0.1c-0.32,-1.6 -0.63,-3.2 -0.9,-4.8l-0.43,-2.4l-0.53,-2.35l-1.63,-7.24l4.63,5.95c1.96,2.52 3.93,5.04 5.87,7.57l0.72,0.96l0.36,0.48l0.18,0.24l0.11,0.13l1.57,1.75l3.18,3.58l0.08,0.09l0.07,0.1l2.67,3.96l0.18,0.27l0.08,0.27c0.39,1.37 0.73,2.7 1.04,4.06c0.3,1.34 0.55,2.8 0.74,4.14c0.41,2.69 0.83,5.37 1.17,8.07l0.47,3.64l-2.83,-2.08c-1.45,-1.07 -2.91,-2.11 -4.32,-3.2l-4.18,-3.23l-4.02,-3.2c-1.28,-1.08 -2.57,-2.12 -3.8,-3.15z" class="st1"/>
	</g>
	<g id="svg_19">
		<path id="svg_20" fill="#CB1517" d="m71.35999,117.35999l-4.43,-1.39l-3.3,-1.35l-4.03,-2.11c-0.16,-0.06 -0.34,0 -0.43,0.16l-2.34,3.24l-1.13,3.44l-3.71,6l-0.1,-5.17c0,-0.03 -0.01,-0.06 -0.01,-0.09c0,0 -1.55,-3.7 -1.44,-4.02l-6.15,3.89c-0.72,0.82 -1.82,2.08 -3.11,3.71c-1.15,1.45 -4.35,1.8 -4.56,1.8c4.08,-2.99 4.19,-5.63 4.71,-7.15c0.54,-1.59 2.35,-4.22 7.69,-8.87l3.55,-0.94c0.1,-0.08 0.15,-0.22 0.14,-0.35l-0.43,-3.68c-0.06,-0.53 -0.06,-1.06 -0.01,-1.57l0.9,-8.49c0.02,-0.1 0.04,-0.19 0.06,-0.29l6.1,-20.67c0.04,-0.12 0.13,-0.22 0.24,-0.25c0.21,-0.07 4.81,-1.56 5.02,-1.62c0,0 0.54,-0.17 0.54,-0.18c0.13,-0.04 0.83,-0.42 0.83,-0.42s-0.35,0.81 -0.43,0.96l-6.22,13.1c-0.11,0.23 -0.27,0.51 -0.32,0.76l-2.17,11.47c-0.18,0.9 -0.03,1.83 0.42,2.59l1.35,2.27c0.51,0.85 1.43,1.3 2.37,1.14l3.11,-0.85l3.66,-0.6l4.01,0.03c2,1.29 3.65,1.29 4.87,1.63c2.48,0.69 3.7,0.37 5.31,1.46c0.96,0.65 1.12,1.11 2.16,1.61c1.31,0.62 2.62,0.65 3.55,0.55c-0.55,0.25 -2.74,1.56 -2.74,1.56l-2.6,1.36c-1.31,-0.08 -2.81,-0.09 -4.47,0.04c-1.56,0.12 -2.96,0.35 -4.17,0.61c-1.72,-0.9 -3.44,-1.81 -5.17,-2.71c-0.21,0.08 -0.97,0.92 -0.86,1.13c0,0 0.6,2.03 0.81,4.18c0.03,0.39 1.33,2.69 2.93,4.08z" class="st1"/>
		<path id="svg_21" fill="#CB1517" d="m71.35999,117.35999c-1.4,-0.44 -2.92,-0.76 -4.5,-1.19l0,0l-0.02,-0.01l-3.36,-1.21l0,0l-0.03,-0.01l-4.11,-1.96l0.04,0.02c0.1,0.05 0.22,-0.01 0.24,-0.06l-0.03,0.05l-2.22,3.32l0.09,-0.18l-1.03,3.47l-0.02,0.07l-0.06,0.1l-3.53,6.12l-1.71,2.96l-0.15,-3.46l-0.12,-2.63l-0.06,-1.32l-0.03,-0.66l-0.01,-0.33l-0.01,-0.16c0,-0.01 0,-0.09 0,-0.05c0,0.05 0.01,0.1 0.02,0.14l0.05,0.15l-0.86,-2l-0.41,-1.03l-0.2,-0.55l-0.1,-0.32l-0.05,-0.24l-0.01,-0.06c-0.01,-0.05 -0.01,-0.14 -0.01,-0.21c0,-0.15 0.03,-0.3 0.07,-0.44l1.82,1.44l-6.06,4.03l0.3,-0.25l-3.08,3.81c-0.89,1.01 -1.85,1.38 -2.74,1.72c-0.45,0.16 -0.9,0.28 -1.35,0.39c-0.23,0.05 -0.45,0.1 -0.68,0.14l-0.35,0.06l-0.19,0.02l-0.1,0.01l-0.21,0.01l-4.93,0.28l4.01,-3.1c1.24,-0.96 2.33,-2.04 2.97,-3.28c0.33,-0.62 0.54,-1.26 0.74,-2.04c0.1,-0.39 0.21,-0.86 0.42,-1.41c0.2,-0.52 0.44,-0.98 0.69,-1.41c1.03,-1.69 2.23,-3.04 3.47,-4.34c1.24,-1.29 2.53,-2.49 3.84,-3.66l0.3,-0.27l0.43,-0.12l3.54,-0.97l-0.72,0.37c-0.23,0.19 -0.39,0.44 -0.46,0.69c-0.04,0.13 -0.06,0.25 -0.07,0.39c0,0.07 0,0.13 0.01,0.2c0.01,0.05 0,-0.02 0,-0.02l-0.06,-0.44l-0.11,-0.88l-0.23,-1.76c-0.07,-0.51 -0.18,-1.37 -0.13,-2.1c0.02,-0.41 0.06,-0.69 0.09,-0.98l0.09,-0.88l0.72,-7.07l0.01,-0.08l0.02,-0.09l0.06,-0.29l0.02,-0.08l0.03,-0.09l4.01,-13.77l2.05,-6.87l0.05,-0.16c0.04,-0.1 0.08,-0.2 0.13,-0.3c0.1,-0.2 0.24,-0.38 0.4,-0.55c0.16,-0.17 0.36,-0.32 0.58,-0.43c0.11,-0.06 0.23,-0.11 0.35,-0.15l0.07,-0.02l0.43,-0.14l0.85,-0.27l1.71,-0.55l1.71,-0.55l0.84,-0.28c0.15,-0.1 0.31,-0.18 0.47,-0.26l4.92,-2.37l-2.19,4.86l-0.49,1.1l-0.49,1.02l-0.98,2.04l-1.95,4.08l-1.97,4.07l-1.01,2.05c-0.07,0.13 -0.07,0.17 -0.04,0.03l-0.11,0.55l-0.22,1.11l-1.78,8.88l-0.2,1.03c-0.03,0.2 -0.04,0.41 -0.01,0.6c0.03,0.2 0.08,0.39 0.17,0.56c0.02,0.05 0.13,0.23 0.22,0.4l0.28,0.49l0.57,0.98l0.28,0.49c0.05,0.09 0.07,0.12 0.11,0.17c0.16,0.18 0.34,0.25 0.54,0.23l-0.15,0.03l3.12,-0.8l0.11,-0.03l0.06,-0.01l3.67,-0.53l0.15,-0.02l0.1,0l4.01,0.1l0.45,0.01l0.33,0.22c1.02,0.69 2.06,1.04 3.46,1.3l0.56,0.13c0.18,0.04 0.44,0.12 0.57,0.15c0.31,0.09 0.62,0.17 0.94,0.25c0.64,0.15 1.31,0.24 2.1,0.41c0.79,0.16 1.69,0.52 2.39,1.02c0.35,0.24 0.69,0.52 0.96,0.79c0.28,0.27 0.46,0.45 0.67,0.59c0.88,0.61 2.11,0.87 3.34,0.77l5.15,-0.41l-4.59,2.47l-2.61,1.41l-2.76,1.35l-0.25,0.12l-0.23,-0.02c-2.8,-0.26 -5.65,-0.14 -8.45,0.38l-0.26,0.05l-0.19,-0.11l-5.07,-2.9l0.36,0.02c0.08,-0.04 -0.08,0.05 -0.14,0.11c-0.08,0.07 -0.16,0.15 -0.23,0.23c-0.07,0.08 -0.14,0.16 -0.2,0.24l-0.06,0.1c-0.02,0 0.03,0.07 -0.04,-0.16l0.03,0.07c0.19,0.78 0.34,1.55 0.46,2.33c0.06,0.39 0.1,0.78 0.14,1.17l0.05,0.59c0.01,0.11 0.01,0.2 0.03,0.24c0.02,0.08 0.05,0.16 0.09,0.25c0.3,0.69 0.7,1.36 1.13,2c0.48,0.6 0.96,1.21 1.52,1.75zm0,0c-0.61,-0.49 -1.15,-1.06 -1.65,-1.66c-0.5,-0.61 -0.96,-1.24 -1.34,-1.95c-0.05,-0.09 -0.09,-0.18 -0.13,-0.29c-0.05,-0.14 -0.05,-0.24 -0.07,-0.33l-0.09,-0.57c-0.07,-0.38 -0.15,-0.75 -0.24,-1.13c-0.17,-0.75 -0.37,-1.5 -0.61,-2.22l0.03,0.07c-0.13,-0.35 -0.01,-0.4 0,-0.52c0.04,-0.09 0.07,-0.16 0.11,-0.22c0.08,-0.13 0.16,-0.24 0.24,-0.35c0.08,-0.11 0.17,-0.21 0.27,-0.31c0.12,-0.11 0.14,-0.19 0.44,-0.34l0.15,-0.08l0.21,0.1l5.26,2.53l-0.44,-0.06c2.87,-0.71 5.85,-1.02 8.84,-0.93l-0.48,0.1l2.64,-1.48l2.69,-1.61l0.56,2.06c-1.58,0.19 -3.32,-0.01 -4.85,-0.95c-0.4,-0.25 -0.74,-0.56 -0.98,-0.76c-0.25,-0.21 -0.46,-0.38 -0.71,-0.53c-0.48,-0.3 -0.93,-0.45 -1.54,-0.56c-0.61,-0.1 -1.35,-0.17 -2.11,-0.31c-0.38,-0.07 -0.76,-0.14 -1.13,-0.24l-0.47,-0.11l-0.48,-0.09c-1.4,-0.2 -3.14,-0.68 -4.51,-1.57l0.77,0.23l-4.01,0.03l0.26,-0.02l-3.65,0.66l0.16,-0.04l-3.09,0.9l-0.04,0.01l-0.11,0.02c-1.29,0.25 -2.7,-0.25 -3.56,-1.18c-0.21,-0.22 -0.41,-0.5 -0.56,-0.73l-0.29,-0.48l-0.59,-0.97l-0.29,-0.48c-0.09,-0.16 -0.19,-0.3 -0.34,-0.58c-0.26,-0.5 -0.43,-1.04 -0.52,-1.58c-0.09,-0.55 -0.1,-1.1 -0.02,-1.65l0.21,-1.2l1.59,-8.89l0.2,-1.11l0.1,-0.56c0.1,-0.51 0.26,-0.81 0.36,-1.02l0.94,-2.03l1.91,-4.1l1.92,-4.09l0.96,-2.04l0.48,-1.02l0.43,-0.97l2.73,2.49c-0.37,0.19 -0.75,0.38 -1.13,0.55l-0.86,0.29l-1.7,0.56l-1.7,0.56l-0.85,0.28l-0.43,0.14c-0.01,0 -0.05,0.02 -0.04,0.01c0.09,-0.03 0.17,-0.06 0.25,-0.11c0.16,-0.08 0.29,-0.19 0.4,-0.3c0.11,-0.11 0.2,-0.24 0.27,-0.37c0.03,-0.07 0.06,-0.13 0.09,-0.2l0.03,-0.08l-0.01,0.03l-2.01,6.89l-4.11,13.75l0.04,-0.17l-0.06,0.29l0.03,-0.17l-0.77,7.06l-0.18,1.67c-0.03,0.46 0,0.78 0.08,1.44l0.19,1.77l0.09,0.88l0.05,0.44l0.01,0.09c0.01,0.1 0.01,0.21 0.01,0.31c-0.01,0.2 -0.04,0.41 -0.1,0.6c-0.12,0.39 -0.36,0.76 -0.71,1.05l-0.33,0.27l-0.39,0.1l-3.56,0.9l0.73,-0.39c-1.28,1.09 -2.53,2.22 -3.7,3.38c-1.16,1.16 -2.27,2.39 -3.05,3.63c-0.19,0.31 -0.35,0.61 -0.46,0.89c-0.11,0.25 -0.21,0.62 -0.33,1.06c-0.24,0.88 -0.61,1.87 -1.12,2.75c-1.02,1.8 -2.51,3.12 -4.01,4.2l-0.92,-2.83c-0.02,0 -0.05,0 -0.05,0l0.05,0l0.12,-0.01l0.26,-0.03l0.53,-0.09c0.35,-0.07 0.7,-0.15 1.02,-0.25c0.64,-0.19 1.25,-0.51 1.45,-0.75l3.25,-3.74l0.14,-0.16l0.16,-0.1l6.24,-3.75l1.82,1.44c0.04,-0.09 0.06,-0.2 0.06,-0.31c0,-0.05 -0.01,-0.11 -0.01,-0.14l0,0c0,0.01 0,0.01 0,0.02l0.05,0.19l0.14,0.46l0.34,0.98l0.74,1.97l0.04,0.12l0.01,0.04c0.02,0.1 0.04,0.2 0.04,0.31l0,0.12l0,0.16l0,0.33l0,0.66l-0.01,1.32l-0.01,2.64l-1.86,-0.51l3.89,-5.89l-0.08,0.17l1.24,-3.4l0.04,-0.12l0.05,-0.07l2.45,-3.16l-0.03,0.05c0.18,-0.34 0.68,-0.57 1.1,-0.38l0.04,0.02l0,0l3.96,2.26l-0.03,-0.01l3.24,1.49l-0.02,-0.01c1.34,0.53 2.78,1.13 4.33,1.62z" class="st1"/>
	</g>
	<g id="svg_22">
		<path id="svg_23" fill="#CB1517" d="m39.61999,136.99999c1.62,0.08 3.11,-0.27 4.69,-0.51c1.56,-0.27 3.29,-0.48 5.14,-0.07c1.79,0.43 3.27,1.21 4.72,1.97c1.42,0.78 2.77,1.6 4.09,2.33c0.65,0.36 1.31,0.7 1.93,0.98c0.31,0.14 0.62,0.27 0.92,0.36l0.45,0.14l0.55,0.15c1.48,0.4 2.96,0.75 4.45,1.06c2.98,0.63 6.01,1.04 9.11,1.35l-1.33,1.5c-0.02,-1.52 -0.07,-3.04 -0.02,-4.57c0.01,-1.53 0.09,-3.06 0.22,-4.6c0.51,1.46 0.96,2.93 1.35,4.41c0.42,1.47 0.75,2.96 1.11,4.44l0.33,1.34l-1.66,0.16c-3.23,0.31 -6.53,0.24 -9.77,-0.24c-1.62,-0.24 -3.23,-0.58 -4.81,-0.99l-0.59,-0.16l-0.68,-0.22c-0.46,-0.15 -0.87,-0.34 -1.28,-0.53c-0.82,-0.37 -1.53,-0.82 -2.25,-1.25c-2.78,-1.74 -5.19,-3.84 -7.67,-5.01c-1.17,-0.59 -2.68,-0.71 -4.26,-0.91c-1.57,-0.18 -3.29,-0.38 -4.74,-1.13z" class="st1"/>
	</g>
	<g id="svg_24">
		<path id="svg_25" fill="#CB1517" d="m81.13999,136.19999c0.88,0.97 1.66,1.98 2.41,3.01c0.76,1.02 1.46,2.08 2.13,3.14l-2.44,-0.29c1.83,-2.93 3.23,-5.99 4.15,-9.22c0.22,-0.8 0.44,-1.64 0.6,-2.43c0.17,-0.9 0.34,-1.8 0.55,-2.69c0.4,-1.79 0.98,-3.55 1.59,-5.29l0.1,-0.3c0.48,-0.65 0.99,-1.28 1.49,-1.92c0.27,-0.31 0.51,-0.63 0.8,-0.92c0.3,-0.29 0.59,-0.58 0.9,-0.85c-0.09,0.4 -0.21,0.79 -0.32,1.18c-0.13,0.37 -0.2,0.78 -0.31,1.17c-0.22,0.77 -0.43,1.55 -0.67,2.3l0.1,-0.3c-0.01,1.84 -0.16,3.64 -0.27,5.45c-0.04,0.91 -0.12,1.81 -0.19,2.71c-0.13,1 -0.28,1.95 -0.53,2.9c-0.96,3.8 -2.97,7.34 -5.74,10.03l-1.76,1.71l-0.68,-2c-0.4,-1.19 -0.78,-2.4 -1.1,-3.63c-0.32,-1.23 -0.61,-2.47 -0.81,-3.76z" class="st1"/>
	</g>
		<path id="svg_26" stroke-miterlimit="10" stroke-width="4" stroke="#E42320" d="m25.68999,110.16999" class="st3"/>
	<g id="svg_27">
		<path id="svg_28" fill="#CB1517" d="m74.53999,173.66999c0.74,0.59 1.47,1.2 2.16,1.84c0.08,0.07 0.19,0.18 0.25,0.21c0.02,-0.01 0.03,-0.01 0.03,0l0.17,0.05l0.68,0.19l1.35,0.4l2.63,0.78c0.34,0.07 0.67,0.03 1.18,0l1.41,-0.08l-0.97,1.4l-0.16,-0.35c-0.05,-0.12 -0.1,-0.21 -0.18,-0.42c-0.06,-0.18 -0.11,-0.37 -0.14,-0.55c-0.03,-0.19 -0.04,-0.38 -0.05,-0.48l-0.12,-1.52c-0.08,-1.01 -0.17,-2.02 -0.22,-3.04l-0.08,-1.53l1.65,0.22c0.11,0.01 0.31,0.02 0.49,-0.01c0.18,-0.02 0.38,-0.07 0.56,-0.14c0.38,-0.13 0.75,-0.36 1.03,-0.61l-0.49,0.89c0.12,-1.3 0.32,-2.6 0.47,-3.89l0.13,-1.08l1.12,-0.17l3.14,-0.48c1.05,-0.15 2.1,-0.28 3.15,-0.42l-0.95,0.55l2.11,-2.66l0.28,-0.35l0.37,-0.12l5.42,-1.77l-0.77,0.78l0.78,-1.98l0.33,-0.83l0.77,0.03l2.43,0.11l-1.04,0.94c0.13,-0.82 0.28,-1.63 0.42,-2.44l0.28,-1.64l1.15,1.04l1.48,1.34l0.07,0.06l0.77,0.93l-1.05,0.21l0.91,-1.76c0.32,-0.58 0.59,-1.18 0.89,-1.77l0.01,0.2l-0.69,-1.9l1.14,1.67l0.05,0.07l-0.03,0.13c-0.17,0.64 -0.31,1.3 -0.5,1.94l-0.58,1.91l-0.27,0.87l-0.78,-0.66l-0.92,-0.78l0.07,0.06l-1.65,-1.13l1.43,-0.6c-0.03,0.83 -0.05,1.65 -0.1,2.48l-0.05,0.88l-0.99,0.05l-2.43,0.13l1.1,-0.79l-0.59,2.04l-0.16,0.54l-0.62,0.24l-5.3,2.09l0.65,-0.47l-2.06,2.71l-0.35,0.46l-0.6,0.09c-1.05,0.16 -2.1,0.33 -3.15,0.47l-3.15,0.42l1.24,-1.25c-0.2,1.29 -0.36,2.59 -0.59,3.88l-0.1,0.58l-0.39,0.31c-0.62,0.49 -1.29,0.83 -2.02,1.04c-0.37,0.1 -0.75,0.18 -1.15,0.2c-0.4,0.02 -0.79,0.01 -1.25,-0.09l1.57,-1.31c0.01,1.01 -0.01,2.03 -0.03,3.04l-0.03,1.52l0,0.28c0,0.07 0.01,0.13 0.02,0.19c0,0.03 0.05,0.18 0.09,0.29l0.12,0.36l0.51,1.52l-1.48,-0.12l-1.4,-0.12c-0.42,-0.04 -1.04,-0.06 -1.61,-0.26c-0.32,-0.11 -0.5,-0.22 -0.72,-0.32l-0.64,-0.31l-1.26,-0.63l-1.26,-0.63l-0.63,-0.32l-0.16,-0.08c-0.09,-0.06 -0.18,-0.12 -0.26,-0.19c-0.12,-0.12 -0.15,-0.2 -0.23,-0.3l-1.66,-2.28z" class="st1"/>
	</g>
	<path id="svg_29" stroke-miterlimit="10" stroke-width="4" stroke="#E42320" fill="none" d="m121.46999,160.49999" class="st4"/>
</svg>